<svg width="28" height="27" viewBox="0 0 28 27" fill="none" xmlns="http://www.w3.org/2000/svg">
<mask id="mask0_335_3776" style="mask-type:alpha" maskUnits="userSpaceOnUse" x="0" y="0" width="28" height="27">
<ellipse cx="13.6344" cy="13.5" rx="13.6344" ry="13.5" fill="#C4C4C4"/>
</mask>
<g mask="url(#mask0_335_3776)">
<path d="M-4.5448 0H31.8136V27H-4.5448V0Z" fill="#41479B"/>
<path d="M31.8136 23.4844L18.3686 13.5L31.8136 3.51563V0H27.0795L13.6344 9.9844L0.189366 0H-4.5448V3.51562L8.90025 13.5L-4.5448 23.4844V27H0.189432L13.6344 17.0157L27.0794 27H31.8136V23.4844Z" fill="white"/>
<path fill-rule="evenodd" clip-rule="evenodd" d="M15.4551 16.2586L31.1317 27.9001L32.4952 26.1001L15.5279 13.5001L32.4952 0.900096L31.1317 -0.899902L15.4551 10.7416V16.2586ZM-2.65151 -6.00815e-05L11.4551 10.4757V11.9999H9.72042L-4.54486 1.40643V-5.41806e-05L-4.54485 -6.00815e-05H-2.65151ZM8.3743 15.9999L-5.22668 26.1001L-3.86324 27.9001L11.4551 16.5246V15.9999H8.3743Z" fill="#DC251C"/>
<path fill-rule="evenodd" clip-rule="evenodd" d="M9.08961 9V0H18.1792V9H31.8136V18H18.1792V27H9.08961V18H-4.5448V9H9.08961Z" fill="white"/>
<path fill-rule="evenodd" clip-rule="evenodd" d="M11.362 11.25V0H15.9068V11.25H31.8136V15.75H15.9068V27H11.362V15.75H-4.5448V11.25H11.362Z" fill="#DC251C"/>
</g>
</svg>
