<svg width="48" height="48" viewBox="0 0 48 48" fill="none" xmlns="http://www.w3.org/2000/svg">
<circle cx="24" cy="24" r="20" fill="white"/>
<path d="M24 4C12.956 4 4 12.956 4 24C4 35.044 12.956 44 24 44C35.044 44 44 35.044 44 24C44 12.956 35.044 4 24 4ZM18.1882 34.2344H13.3173V19.5801H18.1882V34.2344ZM15.7529 17.5791H15.7212C14.0867 17.5791 13.0295 16.4539 13.0295 15.0477C13.0295 13.6097 14.119 12.5156 15.7853 12.5156C17.4515 12.5156 18.4769 13.6097 18.5087 15.0477C18.5087 16.4539 17.4515 17.5791 15.7529 17.5791ZM35.7517 34.2344H30.8814V26.3947C30.8814 24.4245 30.1761 23.0808 28.4138 23.0808C27.0682 23.0808 26.2668 23.9872 25.9147 24.8621C25.7859 25.1752 25.7545 25.6129 25.7545 26.0508V34.2344H20.8839C20.8839 34.2344 20.9476 20.955 20.8839 19.5801H25.7545V21.655C26.4017 20.6565 27.5599 19.2362 30.1441 19.2362C33.3488 19.2362 35.7517 21.3306 35.7517 25.8317V34.2344Z" fill="#0077B7"/>
</svg>
